# xmcd
#
# Track frame offsets: 
#        150
#        27553
#        67478
#        87047
#        107530
#        128272
#        145696
#        165427
#        185756
#        198810
#        220860
#        239241
#        254417
#        277554
#        304279
#
# Disc length: 4314 seconds
#
# Revision: 0
# Processed by: cddbd v1.5.2PL0 Copyright (c) Steve Scherf et al.
# Submitted via: ExactAudioCopy v1.3
#
DISCID=d410d80f
DTITLE=Various Artist - Burning Blues  vol. 01
DYEAR=2018
DGENRE=Blues
TTITLE0=The Harry Garner Band - Carry My Blues Away
TTITLE1=Buck 69 - No Medicine Like the Blues
TTITLE2=Kilborn Alley Blues Band - Christmas In County
TTITLE3=Jeff McCarty - A Thousand Miles to You
TTITLE4=The Stumble - Bullet for the Blind
TTITLE5=Gina Sicilia - Track 1
TTITLE6=Alex Lopez - Stolen
TTITLE7=Ben Poole - Just When You Thought It Was Safe
TTITLE8=Chris Cain - Tired Of The Way You Do
TTITLE9=James Armstong - Change In The Weather
TTITLE10=Dennis Jones - When Youre Not Around
TTITLE11=Black Cat Road - Undertow
TTITLE12=Joey Gilmore - Cold Cold Feeling
TTITLE13=John Verity - Hope for the Best
TTITLE14=T-Bear and The Dukes - Spanish Barfly
EXTD=
EXTT0=
EXTT1=
EXTT2=
EXTT3=
EXTT4=
EXTT5=
EXTT6=
EXTT7=
EXTT8=
EXTT9=
EXTT10=
EXTT11=
EXTT12=
EXTT13=
EXTT14=
PLAYORDER=
